#!OML:ASF H:\Pregnant\Project 1\Capture day 1\Session 1\femalepreg.ASF
:FULLY-SPECIFIED
:DEGREES
431
root 2.79589 15.4321 22.8078 19.1685 -225.076 -363.238
lowerback -15.6186 -0.720345 -1.70222
upperback -6.58995 -0.0635193 -0.876194
thorax 1.77819 0.251103 0.0421562
lowerneck -21.1034 -8.22098 -6.93281
upperneck 30.534 -10.2456 4.41053
head 14.7154 -4.28111 1.09794
rclavicle 4.59798e-014 1.15295e-014
rhumerus -31.4439 -42.5982 5.02256
rradius 24.6607
rwrist 18.1202
rhand -10.3817 -11.8543
rfingers 7.12502
rthumb 15.616 -41.244
lclavicle 4.59798e-014 1.15295e-014
lhumerus -25.836 40.018 -8.50606
lradius 27.2594
lwrist 8.24762
lhand -20.275 3.75452
lfingers 7.12502
lthumb 6.07429 33.6474
rfemur -44.5937 10.9825 19.3471
rtibia 50.9134
rfoot -19.4659 -25.271
rtoes 12.7519
lfemur -28.4844 -9.21402 -22.0336
ltibia 21.9087
lfoot -13.7432 6.27746
ltoes -7.2082
432
root 2.76441 15.4225 22.8059 18.9257 -226.788 -363.572
lowerback -15.71 -0.742827 -1.79413
upperback -6.64433 -0.0785654 -0.915774
thorax 1.76936 0.24432 0.0498156
lowerneck -21.0347 -8.33177 -7.10651
upperneck 30.5232 -10.3893 4.48639
head 14.7242 -4.35849 1.12858
rclavicle 6.28928e-014 -5.61567e-015
rhumerus -31.3068 -42.6193 4.97483
rradius 24.66
rwrist 18.1516
rhand -10.3607 -11.9175
rfingers 7.12502
rthumb 15.6363 -41.3056
lclavicle 6.28928e-014 -5.61567e-015
lhumerus -25.995 39.8066 -8.59588
lradius 27.2273
lwrist 8.31929
lhand -20.2023 3.83173
lfingers 7.12502
lthumb 6.14449 33.7226
rfemur -44.1701 8.84882 20.5395
rtibia 51.4641
rfoot -19.9181 -25.5974
rtoes 12.2683
lfemur -28.3067 -8.59942 -22.6094
ltibia 21.8915
lfoot -13.8315 7.16167
ltoes -7.23716
433
root 2.7347 15.4121 22.804 18.676 -228.52 -363.916
lowerback -15.8088 -0.755178 -1.87938
upperback -6.71025 -0.0799124 -0.951005
thorax 1.75205 0.245017 0.0605074
lowerneck -20.9724 -8.44628 -7.28508
upperneck 30.5333 -10.536 4.56079
head 14.7448 -4.43673 1.15863
rclavicle 5.58267e-014 2.11706e-014
rhumerus -31.1426 -42.5668 4.90109
rradius 24.6777
rwrist 18.1025
rhand -10.3269 -11.9771
rfingers 7.12502
rthumb 15.6688 -41.3626
lclavicle 5.58267e-014 2.11706e-014
lhumerus -26.1601 39.5923 -8.67922
lradius 27.1965
lwrist 8.37691
lhand -20.1338 3.90672
lfingers 7.12502
lthumb 6.21067 33.7957
rfemur -43.8047 6.82459 21.6363
rtibia 52.0136
rfoot -20.1545 -25.8696
rtoes 11.3352
lfemur -28.1641 -7.95114 -23.1767
ltibia 21.9106
lfoot -13.9408 8.01912
ltoes -7.23408
434
root 2.70737 15.4012 22.8007 18.4043 -230.273 -364.264
lowerback -15.9152 -0.727865 -1.90614
upperback -6.77149 -0.0356171 -1.03165
thorax 1.74279 0.266802 -0.00162121
lowerneck -20.8757 -8.5548 -7.41996
upperneck 30.521 -10.7017 4.66587
head 14.7487 -4.51427 1.19161
rclavicle 5.47465e-014 -6.95746e-016
rhumerus -31.0821 -42.4481 4.84619
rradius 24.7285
rwrist 17.9714
rhand -10.3041 -12.0435
rfingers 7.12502
rthumb 15.6908 -41.4273
lclavicle 5.47465e-014 -6.95746e-016
lhumerus -26.2184 39.4101 -8.72335
lradius 27.16
lwrist 8.42147
lhand -20.0948 3.99426
lfingers 7.12502
lthumb 6.24828 33.8821
rfemur -43.4534 4.93918 22.6317
rtibia 52.5413
rfoot -20.2098 -26.0891
rtoes 9.97669
lfemur -28.0271 -7.298 -23.7273
ltibia 21.961
lfoot -14.0748 8.88451
ltoes -7.15487
435
root 2.68281 15.3905 22.7974 18.1288 -232.045 -364.61
lowerback -16.026 -0.695569 -1.92722
upperback -6.84336 0.0146148 -1.09487
thorax 1.72452 0.292131 -0.0476831
lowerneck -20.7748 -8.65192 -7.54822
upperneck 30.5201 -10.8475 4.75461
head 14.7542 -4.58446 1.22114
rclavicle 4.01926e-014 2.36057e-014
rhumerus -30.977 -42.2886 4.76416
rradius 24.7934
rwrist 17.7896
rhand -10.28 -12.1136
rfingers 7.12502
rthumb 15.714 -41.4956
lclavicle 4.01926e-014 2.36057e-014
lhumerus -26.3163 39.2263 -8.78039
lradius 27.1324
lwrist 8.46104
lhand -20.065 4.07383
lfingers 7.12502
lthumb 6.27704 33.9608
rfemur -43.1127 3.25106 23.5152
rtibia 53.0277
rfoot -20.1596 -26.2131
rtoes 8.22944
lfemur -27.9065 -6.60664 -24.2576
ltibia 22.0348
lfoot -14.2356 9.72846
ltoes -7.02422
436
root 2.66111 15.3797 22.7927 17.8461 -233.824 -364.947
lowerback -16.1522 -0.649767 -1.89765
upperback -6.90897 0.0759294 -1.17629
thorax 1.72087 0.321509 -0.139416
lowerneck -20.6811 -8.73581 -7.59979
upperneck 30.5177 -10.9964 4.82681
head 14.7539 -4.64908 1.23085
rclavicle -4.55357e-014 1.36167e-014
rhumerus -30.9045 -42.1513 4.66901
rradius 24.8744
rwrist 17.6053
rhand -10.2911 -12.1606
rfingers 7.12502
rthumb 15.7033 -41.5434
lclavicle -4.55357e-014 1.36167e-014
lhumerus -26.4009 39.0704 -8.86117
lradius 27.11
lwrist 8.49185
lhand -20.0445 4.15965
lfingers 7.12502
lthumb 6.29687 34.0461
rfemur -42.7563 1.77502 24.2861
rtibia 53.4489
rfoot -20.0694 -26.2233
rtoes 6.01269
lfemur -27.7905 -5.91439 -24.7586
ltibia 22.1257
lfoot -14.4122 10.5799
ltoes -6.88751
437
root 2.64271 15.3696 22.7879 17.5746 -235.609 -365.273
lowerback -16.3042 -0.600446 -1.85107
upperback -6.97664 0.139659 -1.23815
thorax 1.72868 0.352079 -0.219714
lowerneck -20.5849 -8.81074 -7.65088
upperneck 30.515 -11.1286 4.8892
head 14.751 -4.70817 1.23998
rclavicle -9.65181e-014 8.44835e-016
rhumerus -30.8057 -42.0286 4.57074
rradius 24.9623
rwrist 17.4153
rhand -10.3162 -12.1868
rfingers 7.12502
rthumb 15.6792 -41.5716
lclavicle -9.65181e-014 8.44835e-016
lhumerus -26.5266 38.9409 -8.95533
lradius 27.0938
lwrist 8.50824
lhand -20.0184 4.21767
lfingers 7.12502
lthumb 6.32206 34.1033
rfemur -42.3863 0.537486 24.944
rtibia 53.7807
rfoot -20.0925 -26.0418
rtoes 3.51119
lfemur -27.6946 -5.1841 -25.2317
ltibia 22.2312
lfoot -14.6095 11.4009
ltoes -6.73236
